<svg version="1.1" xmlns="http://www.w3.org/2000/svg" xmlns:xlink="http://www.w3.org/1999/xlink" x="0px" y="0px"
	 viewBox="0 0 193.5 73.9" style="enable-background:new 0 0 193.5 73.9;" xml:space="preserve">
<g class="tattes">
	<g>
		<path style="fill:#2B445E;" d="M105.1,53.3v2.1h1.2c0.2,0,0.4,0,0.6,0s0.4,0,0.6,0h4.2l0,0h0.1c0,0,0,0,0.1,0s0.1,0,0.2,0l0,0l0,0
			l0,0l0,0c0,0,0,0,0.1,0c0.7,0,5.2,0,5.9,0v-2.1H105.1z"/>
		<g style="enable-background:new    ;">
			<path style="fill:#8EB7C6;" d="M51.2,53.5h5.7c2.2,0,3.9,0.8,5,2.5c0.4,0.6,0.6,1.1,0.7,1.7c0.1,0.6,0.1,1.7,0.1,3.1
				c0,1.6-0.1,2.7-0.2,3.3c-0.1,0.3-0.1,0.6-0.3,0.8c-0.1,0.2-0.3,0.5-0.5,0.8c-0.5,0.7-1.1,1.3-2,1.7c-0.8,0.5-1.9,0.7-3.1,0.7
				h-5.5L51.2,53.5L51.2,53.5z M53.6,66.1h3c1.4,0,2.4-0.4,3-1.3c0.3-0.3,0.5-0.7,0.5-1.2c0.1-0.5,0.1-1.4,0.1-2.7s0-2.2-0.1-2.7
				c-0.1-0.6-0.3-1-0.6-1.3c-0.7-0.9-1.7-1.3-2.9-1.2h-3V66.1z"/>
			<path style="fill:#8EB7C6;" d="M65.6,53.5H76v2.1h-7.9v4.2h6.8v2h-6.8v4.3H76v2.1H65.6V53.5z"/>
			<path style="fill:#8EB7C6;" d="M83.2,66.1c2.1,0,3.2-0.7,3.2-2.1c0-1.1-0.7-1.8-2.1-2c-0.7-0.1-1.4-0.2-2.2-0.3
				c-1.4-0.2-2.5-0.7-3.2-1.4c-0.8-0.7-1.1-1.7-1.1-2.7c0-1.3,0.5-2.3,1.4-3.1s2.2-1.2,3.9-1.2c2,0,3.8,0.5,5.3,1.5L87,56.7
				c-1.2-0.7-2.6-1.1-4-1.1c-0.8,0-1.4,0.2-1.9,0.5c-0.5,0.4-0.8,0.9-0.8,1.6c0,0.4,0.2,0.8,0.5,1.2c0.4,0.4,1,0.6,1.8,0.7
				c0.4,0.1,1.1,0.1,1.8,0.2c1.5,0.2,2.7,0.7,3.4,1.5c0.7,0.8,1.1,1.7,1.1,2.7c-0.1,2.8-2,4.2-5.7,4.3c-2.4,0-4.5-0.7-6.2-2l1.6-1.7
				C79.8,65.6,81.4,66.1,83.2,66.1z"/>
		</g>
		<g style="enable-background:new    ;">
			<path style="fill:#2B445E;" d="M52,53.5h5.7c2.2,0,3.9,0.8,5,2.5c0.4,0.6,0.6,1.1,0.7,1.7c0.1,0.6,0.1,1.7,0.1,3.1
				c0,1.6-0.1,2.7-0.2,3.3c-0.1,0.3-0.1,0.6-0.3,0.8c-0.1,0.2-0.3,0.5-0.5,0.8c-0.5,0.7-1.1,1.3-2,1.7c-0.8,0.5-1.9,0.7-3.1,0.7H52
				V53.5z M54.5,66.1h3c1.4,0,2.4-0.4,3-1.3c0.3-0.3,0.5-0.7,0.5-1.2c0.1-0.5,0.1-1.4,0.1-2.7s0-2.2-0.1-2.7c-0.1-0.6-0.3-1-0.6-1.3
				c-0.7-0.9-1.7-1.3-2.9-1.2h-3V66.1z"/>
			<path style="fill:#2B445E;" d="M66.4,53.5h10.4v2.1h-7.9v4.2h6.8v2h-6.8v4.3h7.9v2.1H66.4V53.5z"/>
			<path style="fill:#2B445E;" d="M84,66.1c2.1,0,3.2-0.7,3.2-2c0-1.1-0.7-1.8-2.1-2c-0.7-0.1-1.4-0.2-2.2-0.3
				c-1.4-0.2-2.5-0.7-3.2-1.4c-0.8-0.7-1.1-1.7-1.1-2.7c0-1.3,0.5-2.3,1.4-3.1s2.2-1.2,3.9-1.2c2,0,3.8,0.5,5.3,1.5l-1.4,1.8
				c-1.2-0.7-2.6-1.1-4-1.1c-0.8,0-1.4,0.2-1.9,0.5c-0.5,0.4-0.8,0.9-0.8,1.6c0,0.4,0.2,0.8,0.5,1.2c0.4,0.3,1,0.6,1.8,0.7
				c0.4,0.1,1.1,0.1,1.8,0.2c1.5,0.2,2.7,0.7,3.4,1.5c0.7,0.8,1.1,1.7,1.1,2.7c-0.1,2.8-2,4.2-5.7,4.3c-2.4,0-4.5-0.7-6.2-2l1.6-1.7
				C80.7,65.6,82.2,66.1,84,66.1z"/>
		</g>
		<path style="fill:#2B445E;" d="M127.1,62.9l-2.4-6.4l0,0l-2.4,6.4H127.1z M127.8,64.8h-6.2l-1.3,3.3h-2.6l5.9-14.7h2.1l5.9,14.7
			H129L127.8,64.8z"/>
		<path style="fill:#2B445E;" d="M114.4,56.3c-0.2,0-0.4,0-0.6,0c-0.1,0-0.2,0-0.4,0c-0.2,0-0.4,0-0.6,0s-0.3,0-0.5,0l-5.2,11.8h2.6
			l5.2-11.8C114.8,56.3,114.6,56.3,114.4,56.3"/>
		<path style="fill:#2B445E;" d="M107.2,68.1h2.6l5.2-11.8c-0.2,0-0.4,0-0.6,0s-0.4,0-0.6,0c-0.1,0-0.2,0-0.4,0c-0.2,0-0.4,0-0.6,0
			s-0.3,0-0.5,0"/>
		<path style="fill:#2B445E;" d="M141.7,56.2c-0.2,0-0.4,0-0.6,0c-0.1,0-0.2,0-0.4,0s-0.4,0-0.6,0c-0.2,0-0.3,0-0.5,0L134.4,68h2.6
			l5.2-11.8C142.1,56.2,141.9,56.2,141.7,56.2"/>
		<path style="fill:#2B445E;" d="M141.7,56.2c-0.2,0-0.4,0-0.6,0c-0.1,0-0.2,0-0.4,0s-0.4,0-0.6,0c-0.2,0-0.3,0-0.5,0L134.4,68h2.6
			l5.2-11.8C142.1,56.2,141.9,56.2,141.7,56.2"/>
		<path style="fill:#2B445E;" d="M134.5,68.1h2.6l5.2-11.8c-0.2,0-0.4,0-0.6,0c-0.2,0-0.4,0-0.6,0c-0.1,0-0.2,0-0.4,0s-0.4,0-0.6,0
			c-0.2,0-0.3,0-0.5,0"/>
		<path style="fill:#2B445E;" d="M156.7,56.3c-0.2,0-0.4,0-0.6,0c-0.1,0-0.2,0-0.4,0s-0.4,0-0.6,0c-0.2,0-0.3,0-0.5,0l-5.2,11.8h2.6
			l5.2-11.8C157.1,56.3,156.9,56.3,156.7,56.3"/>
		<path style="fill:#2B445E;" d="M156.7,56.3c-0.2,0-0.4,0-0.6,0c-0.1,0-0.2,0-0.4,0s-0.4,0-0.6,0c-0.2,0-0.3,0-0.5,0l-5.2,11.8h2.6
			l5.2-11.8C157.1,56.3,156.9,56.3,156.7,56.3"/>
		<path style="fill:#2B445E;" d="M149.5,68.1h2.6l5.2-11.8c-0.2,0-0.4,0-0.6,0c-0.2,0-0.4,0-0.6,0c-0.1,0-0.2,0-0.4,0s-0.4,0-0.6,0
			c-0.2,0-0.3,0-0.5,0"/>
		<polygon style="fill:#2B445E;" points="163.8,53.4 174.2,53.4 174.2,55.5 166.3,55.5 166.3,59.7 173,59.7 173,61.7 166.3,61.7 
			166.3,66 174.2,66 174.2,68.1 163.8,68.1 		"/>
		<path style="fill:#8EB7C6;" d="M126.2,62.9l-2.4-6.4l0,0l-2.4,6.4H126.2z M126.9,64.8h-6.2l-1.3,3.3h-2.6l5.9-14.7h2.1l5.9,14.7
			h-2.6L126.9,64.8z"/>
		<polygon style="fill:#8EB7C6;" points="162.9,53.4 173.3,53.4 173.3,55.5 165.3,55.5 165.3,59.7 172.1,59.7 172.1,61.7 
			165.3,61.7 165.3,66 173.3,66 173.3,68.1 162.9,68.1 		"/>
		<path style="fill:#8EB7C6;" d="M181.7,66c2.1,0,3.2-0.7,3.2-2c0-1.1-0.7-1.8-2.1-2c-0.7-0.1-1.4-0.2-2.2-0.3
			c-1.4-0.2-2.5-0.7-3.2-1.4c-0.8-0.7-1.1-1.7-1.1-2.7c0-1.3,0.5-2.3,1.4-3.1s2.2-1.2,3.9-1.2c2,0,3.8,0.5,5.3,1.5l-1.4,1.8
			c-1.2-0.7-2.6-1.1-4-1.1c-0.8,0-1.4,0.2-1.9,0.5c-0.5,0.4-0.8,0.9-0.8,1.6c0,0.4,0.2,0.8,0.5,1.1c0.4,0.4,0.9,0.6,1.8,0.7
			c0.4,0.1,1.1,0.1,1.8,0.2c1.5,0.2,2.7,0.7,3.4,1.5s1.1,1.7,1.1,2.7c-0.1,2.8-2,4.2-5.7,4.3c-2.4,0-4.5-0.7-6.2-2l1.6-1.7
			C178.4,65.5,179.9,66,181.7,66"/>
		<path style="fill:#7D7974;" d="M113.5,56.3c-0.2,0-0.4,0-0.6,0c-0.1,0-0.2,0-0.4,0c-0.2,0-0.4,0-0.6,0s-0.3,0-0.5,0l-5.2,11.8h2.6
			l5.2-11.8C113.9,56.3,113.7,56.3,113.5,56.3"/>
		<path style="fill:#8EB7C6;" d="M105.1,53.4v2.1h1.2c0.2,0,0.4,0,0.6,0s0.4,0,0.6,0h4.2l0,0h0.1c0,0,0,0,0.1,0s0.1,0,0.2,0l0,0l0,0
			l0,0l0,0c0,0,0,0,0.1,0c0.7,0,1.4,0,2.1,0v-2.1H105.1z"/>
		<path style="fill:#8EB7C6;" d="M106.3,68.1h2.6l5.2-11.8c-0.2,0-0.4,0-0.6,0s-0.4,0-0.6,0c-0.1,0-0.2,0-0.4,0c-0.2,0-0.4,0-0.6,0
			s-0.3,0-0.5,0"/>
		<path style="fill:#2B445E;" d="M132.4,53.3v2.1h1.2c0.2,0,0.4,0,0.6,0c0.2,0,0.4,0,0.6,0h4.2l0,0h0.1c0,0,0,0,0.1,0s0.1,0,0.2,0
			l0,0l0,0l0,0l0,0c0,0,0,0,0.1,0c0.7,0,5.2,0,5.9,0v-2.1H132.4z"/>
		<path d="M140.8,56.2c-0.2,0-0.4,0-0.6,0c-0.1,0-0.2,0-0.4,0s-0.4,0-0.6,0c-0.2,0-0.3,0-0.5,0L133.5,68h2.6l5.2-11.8
			C141.2,56.2,141,56.2,140.8,56.2"/>
		<path style="fill:#7D7974;" d="M140.8,56.2c-0.2,0-0.4,0-0.6,0c-0.1,0-0.2,0-0.4,0s-0.4,0-0.6,0c-0.2,0-0.3,0-0.5,0L133.5,68h2.6
			l5.2-11.8C141.2,56.2,141,56.2,140.8,56.2"/>
		<path style="fill:#8EB7C6;" d="M132.4,53.3v2.1h1.2c0.2,0,0.4,0,0.6,0c0.2,0,0.4,0,0.6,0h4.2l0,0h0.1c0,0,0,0,0.1,0s0.1,0,0.2,0
			l0,0l0,0l0,0l0,0c0,0,0,0,0.1,0c0.7,0,1.4,0,2.1,0v-2.1H132.4z"/>
		<path style="fill:#8EB7C6;" d="M133.6,68.1h2.6l5.2-11.8c-0.2,0-0.4,0-0.6,0c-0.2,0-0.4,0-0.6,0c-0.1,0-0.2,0-0.4,0s-0.4,0-0.6,0
			c-0.2,0-0.3,0-0.5,0"/>
		<path style="fill:#2B445E;" d="M147.4,53.4v2.1h1.2c0.2,0,0.4,0,0.6,0c0.2,0,0.4,0,0.6,0h4.2l0,0h0.1c0,0,0,0,0.1,0s0.1,0,0.2,0
			l0,0l0,0l0,0c0,0,0,0,0.1,0c0.7,0,5.2,0,5.9,0v-2.1H147.4z"/>
		<path d="M155.8,56.3c-0.2,0-0.4,0-0.6,0c-0.1,0-0.2,0-0.4,0s-0.4,0-0.6,0c-0.2,0-0.3,0-0.5,0l-5.2,11.8h2.6l5.2-11.8
			C156.2,56.3,156,56.3,155.8,56.3"/>
		<path style="fill:#7D7974;" d="M155.8,56.3c-0.2,0-0.4,0-0.6,0c-0.1,0-0.2,0-0.4,0s-0.4,0-0.6,0c-0.2,0-0.3,0-0.5,0l-5.2,11.8h2.6
			l5.2-11.8C156.2,56.3,156,56.3,155.8,56.3"/>
		<path style="fill:#8EB7C6;" d="M147.4,53.4v2.1h1.2c0.2,0,0.4,0,0.6,0c0.2,0,0.4,0,0.6,0h4.2l0,0h0.1c0,0,0,0,0.1,0s0.1,0,0.2,0
			l0,0l0,0l0,0c0,0,0,0,0.1,0c0.7,0,1.4,0,2.1,0v-2.1H147.4z"/>
		<path style="fill:#8EB7C6;" d="M148.6,68.1h2.6l5.2-11.8c-0.2,0-0.4,0-0.6,0c-0.2,0-0.4,0-0.6,0c-0.1,0-0.2,0-0.4,0s-0.4,0-0.6,0
			c-0.2,0-0.3,0-0.5,0"/>
	</g>
</g>
<g class="contemporaines">
	<g>
		<g style="enable-background:new    ;">
			<path style="fill:#8EB7C6;" d="M12.7,38.5c-0.4,1.4-1,2.4-2,3.1c-1,0.7-2.3,1.1-3.7,1.1c-1.3,0-2.4-0.3-3.2-0.8
				c-0.9-0.5-1.5-1.1-1.9-1.8c-0.1-0.2-0.2-0.4-0.3-0.6c-0.1-0.2-0.2-0.5-0.2-0.8c-0.1-0.6-0.2-1.7-0.2-3.4s0.1-2.9,0.2-3.4
				c0.1-0.6,0.3-1,0.5-1.4c0.4-0.7,1-1.3,1.9-1.8c0.8-0.7,1.9-1,3.2-1c1.6,0,2.9,0.4,3.8,1.3c1,0.8,1.6,1.9,1.9,3.1h-2.6
				C9.9,31.5,9.5,31,9,30.6S7.8,30,7,30c-0.6,0-1.1,0.1-1.5,0.3c-0.4,0.2-0.8,0.5-1,0.8c-0.3,0.3-0.5,0.7-0.6,1.2s-0.2,1.5-0.2,3
				c0,1.4,0.1,2.4,0.2,2.9c0.1,0.5,0.3,0.9,0.6,1.2c0.3,0.3,0.6,0.5,1,0.7s0.9,0.3,1.5,0.3c1.4,0,2.4-0.7,3.1-2L12.7,38.5L12.7,38.5
				z"/>
			<path style="fill:#8EB7C6;" d="M13.9,35.2c0-1.7,0.1-2.9,0.2-3.4c0.1-0.6,0.3-1,0.5-1.4c0.4-0.7,1-1.3,1.9-1.8
				c0.9-0.5,1.9-0.8,3.2-0.8c1.3,0,2.4,0.3,3.2,0.8c0.9,0.5,1.5,1.1,1.9,1.8c0.3,0.4,0.5,0.8,0.6,1.4s0.1,1.7,0.1,3.4s0,2.8-0.1,3.4
				c-0.1,0.6-0.3,1.1-0.6,1.4c-0.4,0.7-1,1.3-1.9,1.8s-1.9,0.8-3.2,0.8c-1.3,0-2.4-0.3-3.2-0.8c-0.9-0.5-1.5-1.1-1.9-1.8
				c-0.1-0.2-0.2-0.4-0.3-0.6c-0.1-0.2-0.2-0.5-0.2-0.8C14,38,13.9,36.9,13.9,35.2z M16.4,35.2c0,1.4,0.1,2.4,0.2,2.9
				s0.3,0.9,0.6,1.2c0.3,0.3,0.6,0.5,1,0.7s0.9,0.3,1.5,0.3s1.1-0.1,1.5-0.3s0.7-0.4,1-0.7s0.5-0.7,0.7-1.2c0.1-0.5,0.2-1.5,0.2-2.9
				s-0.1-2.4-0.2-3c-0.1-0.5-0.3-0.9-0.7-1.2c-0.2-0.3-0.6-0.6-1-0.8c-0.4-0.2-0.9-0.3-1.5-0.3s-1.1,0.1-1.5,0.3
				c-0.4,0.2-0.8,0.5-1,0.8c-0.3,0.3-0.5,0.7-0.6,1.2C16.4,32.8,16.4,33.8,16.4,35.2z"/>
			<path style="fill:#8EB7C6;" d="M28.4,27.9h2.3l7.4,10.5l0,0V27.9h2.5v14.7h-2.3L31,32.1l0,0v10.5h-2.5V27.9H28.4z"/>
			<path style="fill:#8EB7C6;" d="M46.9,29.8h-4.5v-2h11.4v2h-4.5v12.7h-2.5L46.9,29.8L46.9,29.8z"/>
			<path style="fill:#8EB7C6;" d="M55.6,27.9H66V30h-8v4.2h6.8v2H58v4.3h8v2.1H55.6V27.9z"/>
			<path style="fill:#8EB7C6;" d="M68.3,27.9h2.3l4.7,9.6l4.6-9.6h2.3v14.7h-2.5v-9.2h-0.1l-3.4,7.1h-2.1l-3.4-7.1l0,0v9.2h-2.5
				L68.3,27.9L68.3,27.9z"/>
			<path style="fill:#8EB7C6;" d="M85.7,27.9h5.9c0.6,0,1.3,0.1,1.9,0.2s1.2,0.4,1.8,0.9c0.5,0.3,0.9,0.8,1.3,1.4
				c0.3,0.6,0.5,1.3,0.5,2.1c0,1.1-0.4,2.1-1.3,3S93.7,36.9,92,37h-3.8v5.7h-2.5V27.9z M88.1,34.7h3.7c0.9,0,1.6-0.3,2.1-0.8
				c0.4-0.5,0.7-1,0.7-1.6c0-0.5-0.1-0.9-0.3-1.2c-0.2-0.3-0.4-0.5-0.8-0.7C93,30.1,92.4,30,91.7,30h-3.6L88.1,34.7L88.1,34.7z"/>
			<path style="fill:#8EB7C6;" d="M98.7,35.2c0-1.7,0.1-2.9,0.2-3.4c0.1-0.6,0.3-1,0.5-1.4c0.4-0.7,1-1.3,1.9-1.8s1.9-0.8,3.2-0.8
				c1.3,0,2.4,0.3,3.2,0.8c0.9,0.5,1.5,1.1,1.9,1.8c0.3,0.4,0.5,0.8,0.6,1.4s0.1,1.7,0.1,3.4s0,2.8-0.1,3.4
				c-0.1,0.6-0.3,1.1-0.6,1.4c-0.4,0.7-1,1.3-1.9,1.8s-1.9,0.8-3.2,0.8c-1.3,0-2.4-0.3-3.2-0.8c-0.9-0.5-1.5-1.1-1.9-1.8
				c-0.1-0.2-0.2-0.4-0.3-0.6c-0.1-0.2-0.2-0.5-0.2-0.8C98.8,38,98.7,36.9,98.7,35.2z M101.2,35.2c0,1.4,0.1,2.4,0.2,2.9
				s0.3,0.9,0.6,1.2c0.3,0.3,0.6,0.5,1,0.7s0.9,0.3,1.5,0.3s1.1-0.1,1.5-0.3s0.7-0.4,1-0.7s0.5-0.7,0.7-1.2c0.1-0.5,0.2-1.5,0.2-2.9
				s-0.1-2.4-0.2-3c-0.1-0.5-0.3-0.9-0.7-1.2c-0.2-0.3-0.6-0.6-1-0.8c-0.4-0.2-0.9-0.3-1.5-0.3s-1.1,0.1-1.5,0.3
				c-0.4,0.2-0.8,0.5-1,0.8c-0.3,0.3-0.5,0.7-0.6,1.2C101.2,32.8,101.2,33.8,101.2,35.2z"/>
			<path style="fill:#8EB7C6;" d="M113.2,27.9h6.4c1.4,0,2.5,0.3,3.3,1c1,0.7,1.6,1.8,1.6,3.1c0,2-1.1,3.4-3.2,4.1l3.8,6.5h-2.9
				l-3.4-6.3h-3.2v6.3h-2.5L113.2,27.9L113.2,27.9z M115.7,34.3h3.7c0.9,0,1.6-0.3,2.1-0.7s0.7-1,0.7-1.6c0-0.8-0.3-1.3-0.8-1.7
				c-0.4-0.3-1-0.5-1.8-0.5h-3.9L115.7,34.3L115.7,34.3z"/>
			<path style="fill:#8EB7C6;" d="M135.6,39.3h-6.2l-1.3,3.3h-2.6l5.9-14.7h2.1l5.9,14.7h-2.6L135.6,39.3z M134.9,37.3l-2.4-6.4l0,0
				l-2.4,6.4H134.9z"/>
			<path style="fill:#8EB7C6;" d="M141.2,27.9h2.5v14.7h-2.5V27.9z"/>
			<path style="fill:#8EB7C6;" d="M147.1,27.9h2.3l7.4,10.5l0,0V27.9h2.5v14.7H157l-7.4-10.5l0,0v10.5h-2.5V27.9z"/>
			<path style="fill:#8EB7C6;" d="M162.8,27.9h10.4V30h-7.9v4.2h6.8v2h-6.8v4.3h7.9v2.1h-10.4V27.9z"/>
			<path style="fill:#8EB7C6;" d="M180.3,40.5c2.1,0,3.2-0.7,3.2-2c0-1.1-0.7-1.8-2.1-2c-0.7-0.1-1.4-0.2-2.2-0.3
				c-1.4-0.2-2.5-0.7-3.2-1.4c-0.8-0.7-1.1-1.7-1.1-2.7c0-1.3,0.5-2.3,1.4-3.1c0.9-0.8,2.2-1.2,3.9-1.2c2,0,3.8,0.5,5.3,1.5
				l-1.4,1.8c-1.2-0.7-2.6-1.1-4-1.1c-0.8,0-1.4,0.2-1.9,0.5c-0.5,0.4-0.8,0.9-0.8,1.6c0,0.4,0.2,0.8,0.5,1.2c0.4,0.4,1,0.6,1.8,0.7
				c0.4,0.1,1.1,0.1,1.8,0.2c1.5,0.2,2.7,0.7,3.4,1.5s1.1,1.7,1.1,2.7c-0.1,2.8-2,4.2-5.7,4.3c-2.4,0-4.5-0.7-6.2-2l1.6-1.7
				C177,40,178.5,40.4,180.3,40.5z"/>
		</g>
		<g style="enable-background:new    ;">
			<path style="fill:#2B445E;" d="M13.8,38.5c-0.4,1.4-1,2.4-2,3.1c-1,0.7-2.3,1.1-3.7,1.1c-1.3,0-2.4-0.3-3.2-0.8
				C4,41.3,3.4,40.7,3,40c-0.1-0.2-0.2-0.4-0.3-0.6c-0.1-0.2-0.2-0.5-0.2-0.8c-0.1-0.6-0.2-1.7-0.2-3.4s0.1-2.9,0.2-3.4
				c0.1-0.6,0.3-1,0.5-1.4c0.4-0.7,1-1.3,1.9-1.8s1.9-0.8,3.2-0.8c1.6,0,2.9,0.4,3.8,1.3c1,0.8,1.6,1.9,1.9,3.1h-2.6
				c-0.2-0.6-0.6-1.1-1.1-1.5c-0.6-0.4-1.2-0.6-2-0.6c-0.6,0-1.1,0.1-1.5,0.3c-0.4,0.2-0.8,0.5-1,0.8c-0.3,0.3-0.5,0.7-0.6,1.2
				c-0.1,0.5-0.2,1.5-0.2,3c0,1.4,0.1,2.4,0.2,2.9s0.3,0.9,0.6,1.2c0.3,0.3,0.6,0.5,1,0.7s0.9,0.3,1.5,0.3c1.4,0,2.4-0.7,3.1-2H13.8
				z"/>
			<path style="fill:#2B445E;" d="M15,35.2c0-1.7,0.1-2.9,0.2-3.4c0.1-0.6,0.3-1,0.5-1.4c0.4-0.7,1-1.3,1.9-1.8s1.9-0.8,3.2-0.8
				c1.3,0,2.4,0.3,3.2,0.8c0.9,0.5,1.5,1.1,1.9,1.8c0.3,0.4,0.5,0.8,0.6,1.4s0.1,1.7,0.1,3.4s0,2.8-0.1,3.4
				c-0.1,0.6-0.3,1.1-0.6,1.4c-0.4,0.7-1,1.3-1.9,1.8s-1.9,0.8-3.2,0.8c-1.3,0-2.4-0.3-3.2-0.8c-0.9-0.5-1.5-1.1-1.9-1.8
				c-0.1-0.2-0.2-0.4-0.3-0.6c-0.1-0.2-0.2-0.5-0.2-0.8C15,38,15,36.9,15,35.2z M17.5,35.2c0,1.4,0.1,2.4,0.2,2.9s0.3,0.9,0.6,1.2
				c0.3,0.3,0.6,0.5,1,0.7s0.9,0.3,1.5,0.3s1.1-0.1,1.5-0.3s0.7-0.4,1-0.7s0.5-0.7,0.7-1.2c0.1-0.5,0.2-1.5,0.2-2.9s-0.1-2.4-0.2-3
				c-0.1-0.5-0.3-0.9-0.7-1.2c-0.2-0.3-0.6-0.6-1-0.8c-0.4-0.2-0.9-0.3-1.5-0.3s-1.1,0.1-1.5,0.3c-0.4,0.2-0.8,0.5-1,0.8
				c-0.3,0.3-0.5,0.7-0.6,1.2C17.5,32.8,17.5,33.8,17.5,35.2z"/>
			<path style="fill:#2B445E;" d="M29.5,27.9h2.3l7.4,10.5l0,0V27.9h2.5v14.7h-2.3L32,32.1l0,0v10.5h-2.5V27.9z"/>
			<path style="fill:#2B445E;" d="M48,29.8h-4.5v-2h11.4v2h-4.5v12.7H48V29.8z"/>
			<path style="fill:#2B445E;" d="M56.6,27.9H67V30h-7.9v4.2h6.8v2h-6.8v4.3H67v2.1H56.6V27.9z"/>
			<path style="fill:#2B445E;" d="M69.4,27.9h2.3l4.7,9.6l4.6-9.6h2.3v14.7h-2.5v-9.2h-0.1l-3.4,7.1h-2.1l-3.4-7.1l0,0v9.2h-2.5
				L69.4,27.9L69.4,27.9z"/>
			<path style="fill:#2B445E;" d="M86.8,27.9h5.9c0.6,0,1.3,0.1,1.9,0.2s1.2,0.4,1.8,0.9c0.5,0.3,0.9,0.8,1.3,1.4
				c0.3,0.6,0.5,1.3,0.5,2.1c0,1.1-0.4,2.1-1.3,3s-2.1,1.4-3.8,1.5h-3.8v5.7h-2.5V27.9z M89.2,34.7h3.7c0.9,0,1.6-0.3,2.1-0.8
				c0.4-0.5,0.7-1,0.7-1.6c0-0.5-0.1-0.9-0.3-1.2c-0.2-0.3-0.4-0.5-0.8-0.7c-0.5-0.3-1.1-0.4-1.8-0.4h-3.6L89.2,34.7L89.2,34.7z"/>
			<path style="fill:#2B445E;" d="M99.8,35.2c0-1.7,0.1-2.9,0.2-3.4c0.1-0.6,0.3-1,0.5-1.4c0.4-0.7,1-1.3,1.9-1.8s1.9-0.8,3.2-0.8
				c1.3,0,2.4,0.3,3.2,0.8c0.9,0.5,1.5,1.1,1.9,1.8c0.3,0.4,0.5,0.8,0.6,1.4s0.1,1.7,0.1,3.4s0,2.8-0.1,3.4
				c-0.1,0.6-0.3,1.1-0.6,1.4c-0.4,0.7-1,1.3-1.9,1.8s-1.9,0.8-3.2,0.8c-1.3,0-2.4-0.3-3.2-0.8c-0.9-0.5-1.5-1.1-1.9-1.8
				c-0.1-0.2-0.2-0.4-0.3-0.6c-0.1-0.2-0.2-0.5-0.2-0.8C99.8,38,99.8,36.9,99.8,35.2z M102.3,35.2c0,1.4,0.1,2.4,0.2,2.9
				s0.3,0.9,0.6,1.2c0.3,0.3,0.6,0.5,1,0.7s0.9,0.3,1.5,0.3s1.1-0.1,1.5-0.3s0.7-0.4,1-0.7s0.5-0.7,0.7-1.2c0.1-0.5,0.2-1.5,0.2-2.9
				s-0.1-2.4-0.2-3c-0.1-0.5-0.3-0.9-0.7-1.2c-0.2-0.3-0.6-0.6-1-0.8c-0.4-0.2-0.9-0.3-1.5-0.3s-1.1,0.1-1.5,0.3
				c-0.4,0.2-0.8,0.5-1,0.8c-0.3,0.3-0.5,0.7-0.6,1.2C102.3,32.8,102.3,33.8,102.3,35.2z"/>
			<path style="fill:#2B445E;" d="M114.3,27.9h6.4c1.4,0,2.5,0.3,3.3,1c1,0.7,1.6,1.8,1.6,3.1c0,2-1.1,3.4-3.2,4.1l3.8,6.5h-2.9
				l-3.4-6.3h-3.2v6.3h-2.5L114.3,27.9L114.3,27.9z M116.8,34.3h3.7c0.9,0,1.6-0.3,2.1-0.7s0.7-1,0.7-1.6c0-0.8-0.3-1.3-0.8-1.7
				c-0.4-0.3-1-0.5-1.8-0.5h-3.9L116.8,34.3L116.8,34.3z"/>
			<path style="fill:#2B445E;" d="M136.6,39.3h-6.2l-1.3,3.3h-2.6l5.9-14.7h2.1l5.9,14.7h-2.6L136.6,39.3z M135.9,37.3l-2.4-6.4l0,0
				l-2.4,6.4H135.9z"/>
			<path style="fill:#2B445E;" d="M142.3,27.9h2.5v14.7h-2.5V27.9z"/>
			<path style="fill:#2B445E;" d="M148.2,27.9h2.3l7.4,10.5l0,0V27.9h2.5v14.7h-2.3l-7.4-10.5l0,0v10.5h-2.5V27.9z"/>
			<path style="fill:#2B445E;" d="M163.8,27.9h10.4V30h-7.9v4.2h6.8v2h-6.8v4.3h7.9v2.1h-10.4V27.9z"/>
			<path style="fill:#2B445E;" d="M181.4,40.5c2.1,0,3.2-0.7,3.2-2c0-1.1-0.7-1.8-2.1-2c-0.7-0.1-1.4-0.2-2.2-0.3
				c-1.4-0.2-2.5-0.7-3.2-1.4c-0.8-0.7-1.1-1.7-1.1-2.7c0-1.3,0.5-2.3,1.4-3.1c0.9-0.8,2.2-1.2,3.9-1.2c2,0,3.8,0.5,5.3,1.5
				l-1.4,1.8c-1.2-0.7-2.6-1.1-4-1.1c-0.8,0-1.4,0.2-1.9,0.5c-0.5,0.4-0.8,0.9-0.8,1.6c0,0.4,0.2,0.8,0.5,1.2c0.4,0.4,1,0.6,1.8,0.7
				c0.4,0.1,1.1,0.1,1.8,0.2c1.5,0.2,2.7,0.7,3.4,1.5s1.1,1.7,1.1,2.7c-0.1,2.8-2,4.2-5.7,4.3c-2.4,0-4.5-0.7-6.2-2l1.6-1.7
				C178.1,40,179.6,40.4,181.4,40.5z"/>
		</g>
	</g>
</g>
<g class="les">
	<g>
		<g style="enable-background:new    ;">
			<path style="fill:#8EB7C6;" d="M1.7,3h2.5v12.6h7.9v2.1H1.7V3z"/>
			<path style="fill:#8EB7C6;" d="M14.5,3h10.4v2.1H17v4.2h6.8v2H17v4.3h7.9v2.1H14.5V3z"/>
			<path style="fill:#8EB7C6;" d="M32,15.6c2.1,0,3.2-0.7,3.2-2c0-1.1-0.7-1.8-2.1-2c-0.7-0.1-1.4-0.2-2.2-0.3
				c-1.4-0.2-2.5-0.7-3.2-1.4c-0.8-0.7-1.1-1.7-1.1-2.7c0-1.3,0.5-2.3,1.4-3.1c1-0.8,2.3-1.2,4-1.2c2,0,3.8,0.5,5.3,1.5l-1.4,1.8
				c-1.2-0.7-2.6-1.1-4-1.1c-0.8,0-1.4,0.2-1.9,0.5c-0.5,0.4-0.8,0.9-0.8,1.6c0,0.4,0.2,0.8,0.5,1.2c0.4,0.4,1,0.6,1.8,0.7
				c0.4,0.1,1.1,0.1,1.8,0.2c1.5,0.2,2.7,0.7,3.4,1.5s1.1,1.7,1.1,2.7c-0.1,2.8-2,4.2-5.7,4.3c-2.4,0-4.5-0.7-6.2-2l1.6-1.7
				C28.7,15.1,30.3,15.6,32,15.6z"/>
		</g>
		<g style="enable-background:new    ;">
			<path style="fill:#2B445E;" d="M2.8,3h2.5v12.6h7.9v2.1H2.8V3z"/>
			<path style="fill:#2B445E;" d="M15.5,3H26v2.1h-8v4.2h6.8v2H18v4.3h8v2.1H15.5V3z"/>
			<path style="fill:#2B445E;" d="M33.1,15.6c2.1,0,3.2-0.7,3.2-2c0-1.1-0.7-1.8-2.1-2c-0.7-0.1-1.4-0.2-2.2-0.3
				c-1.4-0.2-2.5-0.7-3.2-1.4c-0.8-0.7-1.1-1.7-1.1-2.7c0-1.3,0.5-2.3,1.4-3.1s2.2-1.2,3.9-1.2c2,0,3.8,0.5,5.3,1.5L37,6.3
				c-1.2-0.7-2.6-1.1-4-1.1c-0.8,0-1.4,0.2-1.9,0.5c-0.5,0.4-0.8,0.9-0.8,1.6c0,0.4,0.2,0.8,0.5,1.2c0.4,0.4,1,0.6,1.8,0.7
				c0.4,0.1,1.1,0.1,1.8,0.2c1.5,0.2,2.7,0.7,3.4,1.5s1.1,1.7,1.1,2.7c-0.1,2.8-2,4.2-5.7,4.3c-2.4,0-4.5-0.7-6.2-2l1.6-1.7
				C29.8,15.1,31.3,15.6,33.1,15.6z"/>
		</g>
	</g>
</g>
</svg>
